<?xml version="1.0" encoding="utf-8"?>
<svg viewBox="104.596 93.352 188.256 193.167" width="188.256" height="193.167" xmlns="http://www.w3.org/2000/svg">
  <filter id='shadow' color-interpolation-filters="sRGB">
    <feDropShadow dx="2" dy="2" stdDeviation="3" flood-opacity="0.5"/>
  </filter>
  <path d="M1948.1,4993.1c-794.6-109.8-1430.8-669.4-1650.5-1453.8c-79.2-281-97.1-758.8-38.3-1098.6C491.8,1048.3,1572.5-121.8,2737.5-239.3c592.7-58.8,1126.7,115,1701.6,559.5l69,51.1l1119-1165c618.3-641.3,1119.1-1177.8,1116.5-1195.7c-2.5-15.3-17.9-76.7-33.2-135.4c-28.1-117.5-2.5-288.7,61.3-413.9c58.8-109.9,2000.5-2105.3,2118-2174.3c84.3-51.1,140.5-63.9,273.4-63.9c457.4,2.5,743.5,436.9,551.9,843.1c-81.7,176.3-2008.2,2179.4-2161.5,2248.3c-94.5,43.4-214.6,51.1-462.4,30.7c-53.7-5.1-194.2,130.3-891.7,850.8c-452.2,470.1-958.1,991.3-1121.6,1154.8l-293.8,301.5l76.6,81.8c232.5,247.8,454.8,641.3,546.8,965.8c217.2,779.3-56.2,1627.5-740.9,2294.3c-485.4,470.1-1154.8,830.4-1796.1,963.2C2617.5,5008.5,2178,5026.3,1948.1,4993.1z M2696.7,4584.4c166.1-28.1,268.3-74.1,168.6-74.1c-150.7,0-702.6,63.9-702.6,81.8C2162.7,4622.7,2502.5,4617.6,2696.7,4584.4z M2047.7,4479.6c12.8-12.8-51.1-528.9-69-546.7c-10.2-7.7-168.6,0-352.6,17.9l-337.3,30.6l17.9,168.6c10.2,92,30.7,184,46,204.4c17.9,20.4,89.4,63.9,158.4,97.1c109.9,53.6,153.3,61.3,327,48.5C1948.1,4494.9,2042.6,4484.7,2047.7,4479.6z M2607.2,4433.6c138-12.8,255.5-28.1,263.2-35.8c10.2-10.2-38.3-480.3-56.2-541.6c-5.1-17.9-115-15.4-360.2,10.2c-196.7,20.5-357.7,40.9-362.8,43.4c-10.2,10.2,43.4,490.6,58.8,541.7c5.1,17.9,46,25.5,107.3,17.9C2310.9,4464.3,2466.7,4446.4,2607.2,4433.6z M3299.6,4367.2c168.6-17.9,396-117.5,396-173.7c0-51.1-53.7-434.3-61.3-444.6c-7.7-7.7-707.7,66.4-717.9,76.7c-5.1,5.1,7.7,135.4,28.1,288.7c17.9,155.9,33.2,283.6,35.8,288.7c0,5.1,38.3,2.6,84.3-5.1C3108,4390.2,3215.3,4377.4,3299.6,4367.2z M1204.6,4086.1c-12.8-69-28.1-86.9-76.7-86.9c-143.1,0-150.7,25.5-33.2,145.6C1214.8,4267.5,1237.8,4254.8,1204.6,4086.1z M3976.7,4050.4c84.3-56.2,217.2-166.1,298.9-245.3l148.2-140.5l-178.8,17.9c-97.1,7.7-247.8,23-332.1,33.2l-153.3,15.3l7.7,178.8c5.1,181.4,17.9,242.7,43.4,242.7C3818.3,4152.6,3894.9,4106.6,3976.7,4050.4z M1130.5,3907.3c51.1-12.8,51.1-15.4,10.2-342.4c-23-181.4-46-337.2-53.7-342.3c-17.9-17.9-401.1,23-421.6,43.4c-28.1,28.1,58.8,319.4,148.2,498.2c74.1,150.7,84.3,158.4,171.2,158.4C1036,3922.6,1099.8,3914.9,1130.5,3907.3z M1713,3846c140.5-15.3,258-30.7,260.6-33.2c10.2-12.8-74.1-646.4-89.4-659.2c-17.9-17.9-659.2,38.3-682.2,58.8c-7.7,7.7,5.1,150.8,25.6,316.8c23,166.1,40.9,316.8,40.9,337.2c0,25.5,25.5,30.7,97.1,20.5C1416.6,3879.2,1575.1,3861.3,1713,3846z M2796.3,3731c7.7-7.7-69-656.6-79.2-666.8c-7.7-7.7-712.8,63.9-720.5,71.5c-7.7,10.2,63.9,610.6,74.1,646.4c7.7,17.9,122.6,15.3,362.8-7.7C2630.2,3754,2791.2,3733.6,2796.3,3731z M3383.9,3677.3c115-10.2,217.2-28.1,224.8-40.9c17.9-28.1-40.9-592.7-63.9-628.5c-15.3-23-684.7,28.1-710.3,56.2c-15.3,15.3,35.8,523.8,61.3,613.2c10.2,40.9,30.6,46,145.6,33.2C3113.1,3700.3,3266.4,3687.5,3383.9,3677.3z M4191.3,3590.5c125.2-12.8,232.5-30.7,237.6-35.8c12.8-12.8-38.3-531.4-58.8-603c-10.2-35.8-48.5-38.3-357.7-7.7c-191.6,17.9-352.6,35.8-357.7,40.9c-5.1,5.1,7.7,145.6,28.1,314.3c20.4,166.1,38.3,314.3,38.3,324.5c0,10.2,53.7,12.8,122.6,5.1C3910.3,3621.1,4066.1,3603.2,4191.3,3590.5z M4669.1,3393.7c102.2-137.9,316.8-516.1,298.9-531.4c-10.2-10.2-488,38.3-498.2,48.6c-5.1,2.5,10.2,143.1,30.7,311.7c20.4,166.1,38.3,306.6,38.3,311.7C4538.8,3557.3,4572,3521.5,4669.1,3393.7z M1066.6,3107.6c10.2-7.7-2.6-163.5-25.6-347.5l-40.9-332.1l-140.5-7.7c-214.6-10.2-214.6-7.7-224.8,390.9l-10.2,350l212.1-17.9C954.2,3133.1,1059,3117.8,1066.6,3107.6z M1659.4,3064.2c122.6-10.2,222.3-28.1,222.3-40.9c0-66.4-81.8-671.9-92-682.1c-10.2-12.8-679.6,46-692.4,58.8c-5.1,5.1,10.2,166.1,35.8,360.2l43.4,350l127.7-12.8C1375.8,3087.1,1534.2,3074.4,1659.4,3064.2z M2374.7,3000.3l324.5-30.7v-79.2c-2.6-130.3-66.4-600.4-84.3-618.3c-17.9-17.9-684.7,35.8-705.2,56.2c-12.8,10.2,43.4,544.2,66.4,643.8C1991.5,3038.6,1963.4,3036,2374.7,3000.3z M3217.9,2923.6c311.7-30.7,327-33.2,316.8-84.3c-7.7-30.7-28.1-178.8-43.4-334.7c-17.9-153.3-40.9-291.2-53.7-304c-15.3-17.9-684.7,25.6-707.7,48.5c-5.1,5.1,10.2,155.9,30.6,337.3c23,181.4,40.9,337.3,40.9,347.5C2801.4,2956.9,2837.2,2956.9,3217.9,2923.6z M4188.7,2831.6c173.7-15.3,176.3-15.3,163.5-81.7c-7.7-35.8-28.1-196.7-46-352.6c-25.6-232.5-40.9-288.7-71.5-288.7c-23,0-189.1,12.8-367.9,30.7l-329.6,28.1l12.8,66.5c7.7,35.7,28.1,196.7,46,357.7l33.2,288.7l191.6-15.3C3928.1,2857.2,4094.2,2841.9,4188.7,2831.6z M4991,2737.1c46-43.4,84.3-273.4,84.3-503.3V2032l-81.8,2.6c-209.5,5.1-620.8,63.9-620.8,86.9c0,15.3,17.9,173.7,35.8,352.6l35.8,329.6l258-17.9C4845.4,2775.5,4975.7,2755,4991,2737.1z M979.8,2302.8c5.1-5.1-66.4-528.9-76.7-564.6c-12.8-35.8-168.6,383.2-186.5,500.8l-15.3,97.1l135.4-15.4C913.3,2313,977.2,2305.3,979.8,2302.8z M1661.9,2244l125.2-15.3l-17.9-155.8c-7.7-86.9-28.1-255.5-43.4-378.2c-30.7-222.3-30.7-224.8-102.2-224.8c-140.5,0-597.9,56.2-618.3,76.7c-12.8,10.2-2.6,184,23,383.2l46,365.4l229.9-17.9C1432,2267,1592.9,2254.3,1661.9,2244z M2344.1,2182.7c145.6-12.8,265.7-28.1,268.3-30.7c5.1-7.7-89.4-763.9-97.1-771.6c-12.8-12.8-692.4,61.3-705.2,76.6c-12.8,12.8,38.3,549.3,63.9,684.7C1889.3,2223.6,1925.1,2226.2,2344.1,2182.7z M3429.9,2075.4c12.8-12.8-84.3-758.8-99.6-774.1c-15.3-17.9-649,46-684.7,69c-20.4,10.2-15.3,120.1,12.8,370.5c23,196.7,46,367.9,51.1,383.2c7.7,17.9,117.5,15.3,360.2-7.7C3263.9,2098.4,3424.8,2080.5,3429.9,2075.4z M4247.5,1998.8c17.9-17.9-74.1-746-94.5-769c-17.9-20.5-684.7,25.5-707.7,48.5c-10.2,7.7,69,720.5,84.3,769c5.1,17.9,115,15.3,357.7-7.7C4081.4,2021.8,4242.4,2003.9,4247.5,1998.8z M4789.1,1957.9c130.3-12.8,242.7-28.1,250.4-35.8c38.3-38.3-199.3-580-316.8-723c-40.9-51.1-56.2-53.7-245.3-33.2c-112.4,12.8-206.9,28.1-212.1,30.6c-7.7,10.2,56.2,569.8,81.8,725.6c12.8,74.1,20.4,79.2,109.9,69C4508.1,1983.4,4658.9,1970.7,4789.1,1957.9z M1416.6,1390.7c135.4-15.4,250.4-30.7,255.5-35.8c15.3-15.3-56.2-600.4-74.1-600.4c-48.5,0-393.5,419-518.6,633.6C1056.4,1426.4,1094.7,1426.4,1416.6,1390.7z M2175.5,1314c155.9-15.3,293.8-30.7,306.6-35.8c20.4-5.1,15.3-117.5-12.8-347.5c-30.7-268.3-48.5-342.4-76.7-337.3c-20.4,0-184,17.9-362.8,33.2c-378.1,38.3-344.9-7.7-288.7,408.8c20.4,148.2,38.3,275.9,38.3,288.7C1779.5,1349.8,1843.3,1347.2,2175.5,1314z M2890.8,1239.9c127.7-12.8,275.9-30.7,334.7-38.3l102.2-15.3l-40.9-329.6c-23-181.4-48.5-337.3-56.2-344.9c-12.8-12.8-684.7,56.2-702.6,71.5c-20.4,20.5,81.8,682.2,104.8,682.2C2648.1,1265.5,2765.7,1252.7,2890.8,1239.9z M3848.9,1135.2c161-15.4,296.4-30.7,298.9-33.2c5.1-2.6-7.7-122.7-25.5-263.2c-51.1-385.8-97.1-421.6-495.7-380.7c-143.1,15.3-265.7,33.2-273.4,43.4c-7.7,7.7,5.1,166.1,28.1,350l40.9,339.8l66.4-12.8C3524.5,1170.9,3688,1153.1,3848.9,1135.2z M4520.9,1066.2l97.1-17.9l-207-204.4C4183.6,616.5,4191.3,614,4222,930.8l17.9,155.8l92-2.5C4382.9,1084.1,4467.2,1076.4,4520.9,1066.2z M2234.2,509.2l186.5-17.9l-17.9-117.5c-10.2-63.9-20.4-120.1-23-125.2c-12.8-15.3-472.7,232.5-503.3,270.8c-28.1,33.2-20.4,38.3,69,23C2001.7,534.8,2132,519.4,2234.2,509.2z M2929.2,440.2l293.8-30.7l-7.7-115c-5.1-63.9-15.3-120.1-23-127.7c-23-25.6-505.9-7.7-610.6,20.4c-99.6,28.1-102.2,33.2-92,125.2C2507.6,496.5,2471.8,486.2,2929.2,440.2z M3703.3,345.7c20.4-17.9-178.8-104.7-327-143.1c-58.8-15.3-63.9-10.2-63.9,71.5c0,48.6,7.7,94.5,15.3,104.7C3348.2,399.4,3677.8,371.3,3703.3,345.7z" style="stroke-width: 50.733px; stroke: rgb(0, 146, 202); fill: none;" transform="matrix(0.019711, 0, 0, -0.019711, 100.169015, 192.1036)"/>
  <path d="M3105.5-1468.3c-196.7-58.8-337.2-252.9-337.2-467.5c0-79.2,94.5-518.6,235-1103.7c155.9-646.4,237.6-1032.2,242.7-1152.3c10.2-275.9,150.7-475.2,406.2-569.8c127.7-48.5,350-33.2,490.6,33.2c229.9,107.3,344.9,291.3,344.9,559.5c0,120.1,63.9,426.7,242.7,1152.3c132.9,541.6,242.7,1029.6,242.7,1083.3c-2.6,298.9-291.3,539.1-546.8,452.2c-92-30.7-120.1-30.7-219.7,2.6c-102.2,35.8-122.6,35.8-222.3-2.6c-102.2-38.3-117.5-38.3-219.7,0c-99.6,38.3-120.1,38.3-224.8,2.6c-99.6-33.2-125.2-33.2-214.6-2.6C3210.2-1440.2,3197.4-1440.2,3105.5-1468.3z M3463.1-1754.4c23-56.2,206.9-1867.6,206.9-2018.4c0-69-56.2-99.6-86.9-48.5c-23,35.8-222.3,2072-206.9,2100.1C3401.8-1680.3,3440.2-1695.7,3463.1-1754.4z M4298.6-1734c7.7-20.4-28.1-447.1-76.7-953c-122.6-1221.2-112.4-1157.4-171.2-1157.4c-33.2,0-48.5,17.9-48.5,58.8c0,125.2,201.8,2036.3,217.2,2059.3C4242.4-1688,4283.3-1690.6,4298.6-1734z" style="stroke-width: 50.733px; stroke: rgb(0, 146, 202); fill: none;" transform="matrix(0.019711, 0, 0, -0.019711, 100.169015, 192.1036)"/>

</svg>
