<?xml version="1.0" encoding="utf-8"?>
<svg viewBox="271.673 101.391 160.563 93.257" width="160.563" height="93.257" xmlns="http://www.w3.org/2000/svg">
  <path d="M 333.858 678.695 C 333.858 678.695 288.306 632.246 225.522 632.246 C 164.188 632.246 103.536 678.695 103.536 678.695 L 69.457 664.491 L 69.457 706.205 C 74.831 708.039 78.755 712.987 78.755 718.958 C 78.755 725.015 74.746 729.962 69.287 731.754 L 79.352 759.862 L 49.624 759.862 L 59.775 731.541 C 54.913 729.451 51.501 724.631 51.501 719.001 C 51.501 713.456 54.827 708.764 59.562 706.632 L 59.562 660.354 L 10 639.668 L 227.995 541.824 L 427.992 640.905 L 333.858 678.695 Z M 223.048 655.79 C 286.216 655.79 317.181 689.23 317.181 689.23 L 317.181 758.582 C 317.181 758.582 284.979 784.6 218.1 784.6 C 151.221 784.6 128.914 758.582 128.914 758.582 L 128.914 689.23 C 128.914 689.23 159.88 655.79 223.048 655.79 L 223.048 655.79 Z M 221.768 769.714 C 265.529 769.714 301.059 760.843 301.059 749.881 C 301.059 738.962 265.572 730.048 221.768 730.048 C 178.007 730.048 142.52 738.919 142.52 749.881 C 142.52 760.843 178.007 769.714 221.768 769.714 Z" style="stroke-width: 2.6033px; fill: none; stroke: rgb(255, 255, 255);" transform="matrix(0.384128, 0, 0, 0.384128, 267.832042, -106.738888)"/>
</svg>