<?xml version="1.0" encoding="utf-8"?>
<svg viewBox="266.154 303.867 129.138 129.142" width="129.138" height="129.142" xmlns="http://www.w3.org/2000/svg">
  <g transform="matrix(0.131771, 0, 0, 0.131771, 264.838511, 302.555421)" style="">
    <path d="M377.4,581.1c0.4,45.1-35.9,82-81.1,82.3c-45.1,0.4-81.9-35.9-82.1-81c-0.4-45.1,35.9-81.9,80.9-82.3C340.3,499.7,377.1,536,377.4,581.1z M337.4,418.3c-45.1,0.3-82-35.9-82.3-81.1c-0.4-45,35.8-81.8,81-82.1c45-0.4,82,35.8,82.2,80.9C418.8,381.2,382.4,417.9,337.4,418.3z M663.3,254.4c0.2,45-36,82-81.1,82.3c-45.1,0.4-82-35.9-82.3-81c-0.4-45.2,35.9-81.9,81.1-82.3C626,173.2,662.9,209.4,663.3,254.4z M173.3,901.5C360.6,917,293.6,718,466.9,716.2l75,62.6C560.6,1004.9,284,1055.4,173.3,901.5z M747.7,610.9c58.3-91.4,238.7-398,238.7-398c14.4-25.4-17.5-52-39.8-33.2c0,0-268.4,233.3-347.5,307.3c-62.6,58.5-62.8,85.2-83.1,181.6l68.6,57.1C675.5,688.4,701.6,683.3,747.7,610.9z M232.3,807.2c-85.1-74.3-139.6-183-140.6-304.1c-1.8-225,179.9-409.6,405.1-411.4c156.7-0.8,264.6,77.8,265.3,140.7c24.8-21.7,47.9-42,67.9-59.4C788.7,82.3,659.2,7.9,496.1,10C225.6,12.2,7.9,233.2,10,503.8C11,622.7,54.2,731.2,125.3,815.5C164.4,835.6,212,828.9,232.3,807.2z M754.8,729.4c43.2,80.5-55.2,137.6-144.8,163c-12.4,37.2-32.8,70.3-56.1,94.4C768.5,962.6,924,811,809.8,664.6C791.1,692.6,773.2,713.5,754.8,729.4z" style="stroke-width: 7.58894px; stroke: rgb(0, 146, 202); fill: none;"/>
  </g>
</svg>