<?xml version="1.0" encoding="utf-8"?>
<svg viewBox="301.597 69.859 99.387 95.412" width="99.387" height="95.412" xmlns="http://www.w3.org/2000/svg">
  <defs>
    <linearGradient gradientUnits="userSpaceOnUse" x1="64.002" y1="16.406" x2="64.002" y2="111.818" id="gradient-0" gradientTransform="matrix(1, 0, 0, 1, 287.289001, 53.452507)">
      <stop offset="0" style="stop-color: rgba(0, 145, 202, 1)"/>
      <stop offset="1" style="stop-color: rgba(0, 72, 100, 1)"/>
    </linearGradient>
  </defs>
  <path d="M 378.335 165.271 C 377.145 165.271 375.988 164.91 374.994 164.222 C 374.477 163.855 356.209 150.551 351.289 146.968 L 327.625 164.193 C 326.586 164.91 325.431 165.271 324.243 165.271 C 321.015 165.271 318.389 162.635 318.389 159.394 C 318.389 158.755 318.503 158.089 318.728 157.414 L 318.766 157.309 C 319.019 156.599 324.98 138.313 327.774 129.734 C 320.432 124.37 304.76 112.926 304.121 112.484 C 302.532 111.37 301.597 109.569 301.597 107.65 C 301.597 104.345 304.205 101.656 307.412 101.656 L 336.758 101.656 L 345.691 74.066 C 346.378 71.62 348.689 69.859 351.29 69.859 C 353.894 69.859 356.205 71.621 356.912 74.142 L 365.859 101.656 L 395.209 101.656 C 398.394 101.656 400.984 104.335 400.984 107.63 C 400.984 109.562 400.048 111.37 398.482 112.468 C 397.811 112.931 382.143 124.371 374.804 129.733 C 377.601 138.319 383.568 156.62 383.829 157.354 C 384.075 158.081 384.19 158.75 384.19 159.395 C 384.19 162.636 381.563 165.271 378.335 165.271 Z M 351.289 142.019 L 352.467 142.875 C 360.863 148.991 376.858 160.639 377.291 160.947 C 377.59 161.153 377.96 161.27 378.335 161.27 C 379.358 161.27 380.19 160.428 380.19 159.393 C 380.19 159.184 380.145 158.946 380.057 158.684 C 379.909 158.313 373.359 138.211 370.551 129.59 L 370.102 128.212 L 371.273 127.358 C 373.759 125.54 395.586 109.594 396.217 109.17 C 396.685 108.841 396.983 108.257 396.983 107.629 C 396.983 106.56 396.17 105.655 395.208 105.655 L 362.952 105.655 L 353.083 75.3 C 352.831 74.406 352.119 73.859 351.289 73.859 C 350.46 73.859 349.748 74.408 349.518 75.225 L 339.668 105.656 L 307.412 105.656 C 306.428 105.656 305.597 106.57 305.597 107.65 C 305.597 108.267 305.895 108.843 306.394 109.193 C 306.994 109.596 328.819 125.542 331.305 127.36 L 332.476 128.214 L 332.027 129.593 C 329.311 137.937 323.09 157.029 322.523 158.679 L 322.524 158.679 C 322.435 158.946 322.39 159.187 322.39 159.396 C 322.39 160.431 323.221 161.273 324.244 161.273 C 324.624 161.273 324.984 161.159 325.315 160.931 L 351.289 142.019 Z" style="stroke-opacity: 0.18; fill-rule: nonzero; stroke-width: 0px; fill: url(#gradient-0);"/>
</svg>