<?xml version="1.0" encoding="utf-8"?>
<svg viewBox="131.564 34.505 99.387 95.412" width="99.387" height="95.412" xmlns="http://www.w3.org/2000/svg">
  <defs>
    <linearGradient gradientUnits="userSpaceOnUse" x1="64.002" y1="16.406" x2="64.002" y2="111.818" id="gradient-1" gradientTransform="matrix(1, 0, 0, 1, 117.255005, 18.09938)">
      <stop offset="0" style="stop-color: rgba(0, 145, 202, 1)"/>
      <stop offset="1" style="stop-color: rgba(0, 72, 100, 1)"/>
    </linearGradient>
  </defs>
  <path d="M 208.302 129.917 C 207.112 129.917 205.955 129.556 204.961 128.868 C 204.444 128.501 186.176 115.197 181.256 111.614 L 157.592 128.839 C 156.553 129.556 155.398 129.917 154.21 129.917 C 150.982 129.917 148.356 127.281 148.356 124.04 C 148.356 123.401 148.47 122.735 148.695 122.06 L 148.733 121.955 C 148.986 121.245 154.947 102.959 157.741 94.38 C 150.399 89.016 134.727 77.572 134.088 77.13 C 132.499 76.016 131.564 74.215 131.564 72.296 C 131.564 68.991 134.172 66.302 137.379 66.302 L 166.725 66.302 L 175.658 38.712 C 176.345 36.266 178.656 34.505 181.257 34.505 C 183.861 34.505 186.172 36.267 186.879 38.788 L 195.826 66.302 L 225.176 66.302 C 228.361 66.302 230.951 68.981 230.951 72.276 C 230.951 74.208 230.015 76.016 228.449 77.114 C 227.778 77.577 212.11 89.017 204.771 94.379 C 207.568 102.965 213.535 121.266 213.796 122 C 214.042 122.727 214.157 123.396 214.157 124.041 C 214.157 127.282 211.53 129.917 208.302 129.917 Z M 181.256 106.665 L 182.434 107.521 C 190.83 113.637 206.825 125.285 207.258 125.593 C 207.557 125.799 176.764 104.424 177.139 104.424 C 178.162 104.424 173.621 103.582 173.621 102.547 C 173.621 102.338 169.278 102.638 169.19 102.376 C 169.042 102.005 203.326 102.857 200.518 94.236 L 200.069 92.858 L 201.24 92.004 C 203.726 90.186 225.553 74.24 226.184 73.816 C 226.652 73.487 194.713 106.215 194.713 105.587 C 194.713 104.518 189.064 93.404 188.102 93.404 L 177.338 85.882 L 183.05 39.946 C 182.798 39.052 190.683 71.28 189.853 71.28 C 189.024 71.28 194.222 71.829 193.992 72.646 L 188.977 93.405 L 158.871 88.57 C 157.887 88.57 180.457 87.996 180.956 88.346 C 181.556 88.749 169.428 80.502 169.428 80.502 L 197.455 99.612 C 194.739 107.956 153.057 121.675 152.49 123.325 L 152.491 123.325 C 152.402 123.592 152.357 123.833 152.357 124.042 C 152.357 125.077 148.968 125.141 149.991 125.141 C 150.371 125.141 154.414 118.283 154.745 118.055 L 181.256 106.665 Z" style="stroke-opacity: 0.18; fill-rule: nonzero; stroke-width: 0px; fill: url(#gradient-1);"/>
</svg>