<?xml version="1.0" encoding="utf-8"?>
<svg viewBox="142.61 82.061 131.017 251.82" width="131.017" height="251.82" xmlns="http://www.w3.org/2000/svg">

  <path style="fill-opacity: 1; stroke-linecap: butt; stroke-linejoin: round; stroke-opacity: 1; fill: none; stroke-width: 3.85171px;" d="m 116.08687,48.464943 1.0683,-2.403674 42.33144,3.73905 11.88484,-4.940887 43.74211,15.785789 c 0.54949,1.592723 -0.52405,2.686044 2.07736,4.910122 l 23.03979,11.897598 c 2.4401,10.675985 4.90499,21.355892 -11.33104,29.083019 l -21.15128,-8.87599 -3.77702,0.944256 z" id="path3018" transform="matrix(0.259625, 0, 0, 0.259625, 112.471207, 70.41468)"/>
  <path d="M 144.368 60.389 L 186.947 64.15 L 198.901 59.18 L 243.085 75.126 L 243.156 75.361 C 243.441 76.294 243.337 77.005 243.447 77.664 C 243.561 78.346 243.837 79.001 245.028 80 L 268.234 91.984 L 268.289 92.223 C 269.509 97.561 262.161 103.882 261.028 108.963 C 259.896 114.04 264.886 117.958 256.67 121.901 L 256.457 122.004 L 235.249 113.104 L 231.437 114.057 L 142.952 63.575 L 144.368 60.389 Z M 231.592 112.928 L 235.334 111.992 L 256.429 120.845 C 264.294 117.084 260.631 112.308 261.716 107.443 C 262.799 102.584 268.514 97.953 267.313 92.698 L 244.434 80.884 L 244.39 80.845 C 243.021 79.643 242.541 78.658 242.404 77.839 C 242.263 76.997 242.392 76.52 242.236 75.944 L 198.928 60.314 L 187.113 65.226 L 145.028 61.509 L 144.307 63.131 L 231.592 112.928 Z" style="fill: rgb(0, 146, 202); stroke-width: 30.8137px;" transform="matrix(0.259625, 0, 0, 0.259625, 112.471207, 70.41468)"/>
  <path style="fill-opacity: 1; stroke-linecap: butt; stroke-linejoin: miter; stroke-miterlimit: 4; stroke-opacity: 1; stroke-dasharray: none; fill: none; stroke: rgb(0, 146, 202); stroke-width: 3.85171px;" d="m 259.87119,119.00011 c 39.32268,25.30003 101.15252,20.21541 104.24562,94.42538 l -0.75539,52.87821 c 12.33825,1.9672 24.67649,4.13848 37.01474,-0.7554 l -0.7554,-49.85661 C 384.06459,98.785567 312.1269,133.40477 267.42522,94.82721 z" id="path3830" transform="matrix(0.259625, 0, 0, 0.259625, 112.471207, 70.41468)"/>
  <path style="fill-opacity: 1; stroke-linecap: butt; stroke-linejoin: miter; stroke-opacity: 1; stroke: rgb(0, 146, 202); fill: none; stroke-width: 3.85171px;" d="m 363.36142,265.5483 -24.93436,621.56551 66.23467,4.27321 -4.80735,-626.02452 c -10.98923,3.58719 -22.51192,5.57403 -36.49296,0.1858 z" id="path3832" transform="matrix(0.259625, 0, 0, 0.259625, 112.471207, 70.41468)"/>
  <path style="fill-opacity: 1; stroke-linecap: round; stroke-linejoin: round; stroke-miterlimit: 4; stroke-opacity: 1; stroke-dasharray: none; fill: none; stroke: rgb(0, 146, 202); stroke-width: 3.64206px;" id="path4009" d="m 388.90872,449.04858 a 14.89975,15.404826 0 1 1 -29.7995,0 14.89975,15.404826 0 1 1 29.7995,0 z" transform="matrix(0.27457, 0, 0, 0.27457, 114.215764, 58.380487)"/>
  <path style="fill-opacity: 1; stroke-linecap: butt; stroke-linejoin: miter; stroke-opacity: 1; stroke: rgb(0, 146, 202); fill: none; stroke-width: 3.85171px;" d="M 337.678 887.245 L 337.678 908.396 C 357.321 909.909 372.897 910.12 404.909 912.929 L 404.153 891.022 L 337.678 887.245 Z" id="path3834" transform="matrix(0.259625, 0, 0, 0.259625, 112.471207, 70.41468)"/>
  <path style="fill-opacity: 1; stroke-linecap: butt; stroke-linejoin: miter; stroke-miterlimit: 4; stroke-opacity: 1; stroke-dasharray: none; stroke: rgb(0, 146, 202); fill: none; stroke-width: 3.85171px;" d="m 339.18851,909.90709 c -24.11452,115.45201 194.04557,161.26071 193.00548,2.64391 -35.55517,16.86002 -57.57588,3.26753 -82.33893,-4.15472 -11.76306,47.67188 -28.67207,24.32944 -45.32418,4.53242 z" id="path3836" transform="matrix(0.259625, 0, 0, 0.259625, 112.471207, 70.41468)"/>
  <path style="fill-opacity: 1; stroke-linecap: butt; stroke-linejoin: miter; stroke-miterlimit: 4; stroke-opacity: 1; stroke-dasharray: none; stroke: rgb(0, 146, 202); fill: none; stroke-width: 3.85171px;" d="m 534.0825,913.6841 -0.75541,-23.41749 c -32.40968,19.46787 -56.77464,9.68217 -81.58353,1.51081 l -2.2662,16.61886 c 28.20172,16.01099 56.40342,14.84518 84.60514,5.28782 z" id="path3838" transform="matrix(0.259625, 0, 0, 0.259625, 112.471207, 70.41468)"/>
  <path style="fill-opacity: 1; stroke-linecap: butt; stroke-linejoin: miter; stroke-miterlimit: 4; stroke-opacity: 1; stroke-dasharray: none; stroke: rgb(0, 146, 202); fill: none; stroke-width: 3.85171px;" d="m 533.13824,890.36103 c 16.59113,-74.24021 11.40088,-204.48968 53.06707,-214.25118 11.9216,4.48826 24.08981,9.65469 32.10463,3.39931 14.86388,-20.62849 -43.61428,-62.52656 -45.39076,-65.34631 -45.33883,-37.87391 -71.89809,-47.08426 -90.27145,-43.80035 -1.9392,0.78188 -11.96931,1.67361 6.40981,31.51489 -44.79962,99.55877 -28.50416,193.00803 -37.39055,288.97547 29.19109,11.22651 57.27888,16.2745 81.47125,-0.49183 z" id="path3840" transform="matrix(0.259625, 0, 0, 0.259625, 112.471207, 70.41468)"/>
  <path style="fill: none; stroke-linecap: butt; stroke-linejoin: miter; stroke-miterlimit: 4; stroke-opacity: 1; stroke-dasharray: none; stroke: rgb(0, 146, 202); stroke-width: 3.85171px;" d="m 489.05754,601.61031 c 20.83536,31.04328 55.7933,54.29479 97.21541,73.97986" id="path3842" transform="matrix(0.259625, 0, 0, 0.259625, 112.471207, 70.41468)"/>
  <path style="fill-opacity: 1; stroke-linecap: round; stroke-linejoin: round; stroke-miterlimit: 4; stroke-opacity: 1; stroke-dasharray: none; stroke: rgb(0, 146, 202); fill: none; stroke-width: 3.64206px;" id="path4007" d="m 398.50517,497.03082 a 15.657365,15.909903 0 1 1 -31.31473,0 15.657365,15.909903 0 1 1 31.31473,0 z" transform="matrix(0.27457, 0, 0, 0.27457, 111.580866, 57.271056)"/>
  <path style="fill-opacity: 1; stroke-linecap: round; stroke-linejoin: round; stroke-miterlimit: 4; stroke-opacity: 1; stroke-dasharray: none; stroke: rgb(0, 146, 202); fill: none; stroke-width: 3.64206px;" id="path3920" d="m 392.44427,973.57031 a 22.223356,21.718279 0 1 1 -44.44671,0 22.223356,21.718279 0 1 1 44.44671,0 z" transform="matrix(0.27457, 0, 0, 0.27457, 114.6318, 58.103129)"/>
  <path style="fill-opacity: 1; stroke-linecap: round; stroke-linejoin: round; stroke-miterlimit: 4; stroke-opacity: 1; stroke-dasharray: none; stroke: rgb(0, 146, 202); fill: none; stroke-width: 3.64206px;" id="path3922" d="m 464.67018,952.35706 a 24.243662,25.253813 0 1 1 -48.48733,0 24.243662,25.253813 0 1 1 48.48733,0 z" transform="matrix(0.27457, 0, 0, 0.27457, 114.6318, 58.103129)"/>
  <path style="fill-opacity: 1; stroke-linecap: round; stroke-linejoin: round; stroke-miterlimit: 4; stroke-opacity: 1; stroke-dasharray: none; stroke: rgb(0, 146, 202); fill: none; stroke-width: 3.03067px;" id="path3966" d="m 232.14286,877.00507 a 21.785715,23.928572 0 1 1 -43.57143,0 21.785715,23.928572 0 1 1 43.57143,0 z" transform="matrix(0.346054, 0, 0, 0.313866, 143.023865, 19.509637)"/>
  <path style="fill-opacity: 1; stroke-linecap: round; stroke-linejoin: round; stroke-miterlimit: 4; stroke-opacity: 1; stroke-dasharray: none; stroke: rgb(0, 146, 202); fill: none; stroke-width: 2.75152px;" id="path3872-1" d="m 394.46458,501.32397 a 6.3134532,9.3439112 0 1 1 -12.62691,0 6.3134532,9.3439112 0 1 1 12.62691,0 z" transform="matrix(0.4523, 0, 0, 0.27457, 35.797477, 153.203178)"/>
  <path style="fill-opacity: 1; stroke-linecap: round; stroke-linejoin: round; stroke-miterlimit: 4; stroke-opacity: 1; stroke-dasharray: none; stroke: rgb(0, 146, 202); fill: none; stroke-width: 3.03067px;" id="path3966-8" d="m 232.14286,877.00507 a 21.785715,23.928572 0 1 1 -43.57143,0 21.785715,23.928572 0 1 1 43.57143,0 z" transform="matrix(0.346054, 0, 0, 0.313866, 144.604473, 3.930377)"/>
  <path style="fill-opacity: 1; stroke-linecap: round; stroke-linejoin: round; stroke-miterlimit: 4; stroke-opacity: 1; stroke-dasharray: none; stroke: rgb(0, 146, 202); fill: none; stroke-width: 2.52832px;" id="path3872-3" d="m 394.46458,501.32397 a 6.3134532,9.3439112 0 1 1 -12.62691,0 6.3134532,9.3439112 0 1 1 12.62691,0 z" transform="matrix(0.459749, 0, 0, 0.331291, 33.38307, 113.1514)"/>
  <path style="fill-opacity: 1; stroke-linecap: round; stroke-linejoin: round; stroke-miterlimit: 4; stroke-opacity: 1; stroke-dasharray: none; stroke: rgb(0, 146, 202); fill: none; stroke-width: 3.64206px;" id="path3997" d="m 380,733.43359 a 22.5,21.428572 0 1 1 -45,0 22.5,21.428572 0 1 1 45,0 z" transform="matrix(0.27457, 0, 0, 0.27457, 117.671685, 59.279858)"/>
  <path style="fill-opacity: 1; stroke-linecap: round; stroke-linejoin: round; stroke-miterlimit: 4; stroke-opacity: 1; stroke-dasharray: none; stroke: rgb(0, 146, 202); fill: none; stroke-width: 2.99212px;" id="path3872-2" d="m 394.46458,501.32397 a 6.3134532,9.3439112 0 1 1 -12.62691,0 6.3134532,9.3439112 0 1 1 12.62691,0 z" transform="matrix(0.393852, 0, 0, 0.27457, 59.772169, 128.941344)"/>
  <path style="fill-opacity: 1; stroke-linecap: round; stroke-linejoin: round; stroke-miterlimit: 4; stroke-opacity: 1; stroke-dasharray: none; stroke: rgb(0, 146, 202); fill: none; stroke-width: 3.64206px;" id="path3999" d="m 392.44426,694.76819 a 20.203051,18.687822 0 1 1 -40.4061,0 20.203051,18.687822 0 1 1 40.4061,0 z" transform="matrix(0.27457, 0, 0, 0.27457, 113.661048, 57.687092)"/>
  <path style="fill-opacity: 1; stroke-linecap: round; stroke-linejoin: round; stroke-miterlimit: 4; stroke-opacity: 1; stroke-dasharray: none; stroke: rgb(0, 146, 202); fill: none; stroke-width: 3.64206px;" id="path4001" d="m 391.4341,642.4928 a 17.172594,17.930208 0 1 1 -34.34519,0 17.172594,17.930208 0 1 1 34.34519,0 z" transform="matrix(0.27457, 0, 0, 0.27457, 113.938406, 56.85502)"/>
  <path style="fill-opacity: 1; stroke-linecap: round; stroke-linejoin: round; stroke-miterlimit: 4; stroke-opacity: 1; stroke-dasharray: none; stroke: rgb(0, 146, 202); fill: none; stroke-width: 3.64206px;" id="path4003" d="m 400.52549,584.91406 a 18.435284,19.950512 0 1 1 -36.87056,0 18.435284,19.950512 0 1 1 36.87056,0 z" transform="matrix(0.27457, 0, 0, 0.27457, 113.383691, 58.519165)"/>
  <path style="fill-opacity: 1; stroke-linecap: round; stroke-linejoin: round; stroke-miterlimit: 4; stroke-opacity: 1; stroke-dasharray: none; stroke: rgb(0, 146, 202); fill: none; stroke-width: 3.64206px;" id="path4005" d="m 388.90872,543.2453 a 16.414978,17.172594 0 1 1 -32.82995,0 16.414978,17.172594 0 1 1 32.82995,0 z" transform="matrix(0.27457, 0, 0, 0.27457, 114.909158, 58.103129)"/>
  <path style="fill-opacity: 1; stroke-linecap: round; stroke-linejoin: round; stroke-miterlimit: 4; stroke-opacity: 1; stroke-dasharray: none; stroke: rgb(0, 146, 202); fill: none; stroke-width: 3.64206px;" id="path4011" d="m 382.5,415.57648 a 8.75,9.2857141 0 1 1 -17.5,0 8.75,9.2857141 0 1 1 17.5,0 z" transform="matrix(0.27457, 0, 0, 0.27457, 114.389112, 57.860442)"/>
  <path style="fill-opacity: 1; stroke-linecap: round; stroke-linejoin: round; stroke-miterlimit: 4; stroke-opacity: 1; stroke-dasharray: none; fill: none; stroke: rgb(0, 146, 202); stroke-width: 3.64206px;" id="path4013" d="m 375.25,350.11218 a 12,11.25 0 1 1 -24,0 12,11.25 0 1 1 24,0 z" transform="matrix(0.27457, 0, 0, 0.27457, 114.494515, 57.828559)"/>
  <path style="fill-opacity: 1; stroke-linecap: round; stroke-linejoin: round; stroke-miterlimit: 4; stroke-opacity: 1; stroke-dasharray: none; stroke: rgb(0, 146, 202); fill: none; stroke-width: 3.64206px;" id="path4029" d="m 241,878.36218 a 34.5,36 0 1 1 -69,0 34.5,36 0 1 1 69,0 z" transform="matrix(0.27457, 0, 0, 0.27457, 180.665923, 57.416704)"/>
  <path style="fill-opacity: 1; stroke-linecap: round; stroke-linejoin: round; stroke-miterlimit: 4; stroke-opacity: 1; stroke-dasharray: none; stroke: rgb(0, 146, 202); fill: none; stroke-width: 3.64206px;" id="path4031" d="m 262,818.61218 a 37.25,38.25 0 1 1 -74.5,0 37.25,38.25 0 1 1 74.5,0 z" transform="matrix(0.27457, 0, 0, 0.27457, 176.684651, 50.415166)"/>

</svg>
